<svg width="24" height="18" viewBox="0 0 24 18" fill="none" xmlns="http://www.w3.org/2000/svg">
<path d="M22.5 17.9998H1.50001C0.671548 17.9998 0 17.3282 0 16.4998C0 15.6714 0.671548 14.9998 1.50001 14.9998H22.5C23.3285 14.9998 24.0001 15.6714 24.0001 16.4998C24 17.3282 23.3285 17.9998 22.5 17.9998Z" fill="black"/>
<path d="M22.5 10.4998H1.50001C0.671548 10.4998 0 9.8283 0 8.99989C0 8.17148 0.671548 7.49988 1.50001 7.49988H22.5C23.3285 7.49988 24.0001 8.17143 24.0001 8.99989C24.0001 9.82835 23.3285 10.4998 22.5 10.4998Z" fill="black"/>
<path d="M22.5 2.99981H1.50001C0.671548 2.99981 0 2.32826 0 1.4998C0 0.671334 0.671548 -0.000213623 1.50001 -0.000213623H22.5C23.3285 -0.000213623 24.0001 0.671334 24.0001 1.4998C24.0001 2.32826 23.3285 2.99981 22.5 2.99981Z" fill="black"/>
</svg>
