<svg width="38" height="38" viewBox="0 0 38 38" fill="none" xmlns="http://www.w3.org/2000/svg">
<rect width="38" height="38" rx="8" fill="url(#paint0_linear_146_4668)"/>
<path d="M27.4247 23.1492C26.9444 22.3219 26.2304 19.9809 26.2304 16.9234C26.2304 15.0872 25.501 13.3262 24.2026 12.0278C22.9042 10.7294 21.1432 10 19.307 10C17.4709 10 15.7099 10.7294 14.4115 12.0278C13.1131 13.3262 12.3837 15.0872 12.3837 16.9234C12.3837 19.9818 11.6688 22.3219 11.1885 23.1492C11.0659 23.3596 11.0008 23.5985 11 23.842C10.9992 24.0855 11.0626 24.3249 11.1838 24.5361C11.305 24.7472 11.4797 24.9227 11.6904 25.0448C11.9011 25.1669 12.1402 25.2313 12.3837 25.2314H15.9155C16.0752 26.013 16.5 26.7155 17.118 27.22C17.736 27.7245 18.5093 28 19.307 28C20.1048 28 20.8781 27.7245 21.4961 27.22C22.1141 26.7155 22.5389 26.013 22.6986 25.2314H26.2304C26.4738 25.2311 26.7129 25.1666 26.9234 25.0445C27.134 24.9223 27.3086 24.7468 27.4297 24.5357C27.5508 24.3245 27.6141 24.0852 27.6132 23.8418C27.6124 23.5984 27.5473 23.3595 27.4247 23.1492ZM19.307 26.6161C18.8776 26.616 18.4588 26.4827 18.1083 26.2348C17.7577 25.9868 17.4926 25.6363 17.3495 25.2314H21.2646C21.1215 25.6363 20.8564 25.9868 20.5058 26.2348C20.1553 26.4827 19.7365 26.616 19.307 26.6161Z" fill="white"/>
<defs>
<linearGradient id="paint0_linear_146_4668" x1="0" y1="19" x2="42.56" y2="19" gradientUnits="userSpaceOnUse">
<stop stop-color="#1FBBC2"/>
<stop offset="1" stop-color="#67D1AB"/>
</linearGradient>
</defs>
</svg>
