<svg width="22" height="20" viewBox="0 0 22 20" fill="none" xmlns="http://www.w3.org/2000/svg">
<path fill-rule="evenodd" clip-rule="evenodd" d="M18.728 19.182H3.273C2.01834 19.1804 1.00165 18.1637 1 16.909V6C1.00165 4.74534 2.01834 3.72866 3.273 3.727H5.027C5.48315 3.72766 5.90929 3.49975 6.162 3.12L6.9 2.012C7.32138 1.37909 8.03165 0.999176 8.792 1H13.209C13.9691 0.998972 14.6792 1.37897 15.1 2.012L15.839 3.12C16.0915 3.50003 16.5178 3.72802 16.974 3.727H18.728C19.9825 3.72866 20.9989 4.74551 21 6V16.909C20.9989 18.1635 19.9825 19.1803 18.728 19.182ZM3.273 4.636C2.51991 4.63655 1.90955 5.24691 1.909 6V16.909C1.90955 17.6621 2.51991 18.2725 3.273 18.273H18.728C19.4807 18.2719 20.0904 17.6617 20.091 16.909V6C20.0904 5.2473 19.4807 4.6371 18.728 4.636H16.974C16.2139 4.63687 15.5037 4.2574 15.082 3.625L14.344 2.516C14.091 2.13653 13.6651 1.90871 13.209 1.909H8.792C8.33585 1.90835 7.90971 2.13625 7.657 2.516L6.918 3.625C6.49684 4.25751 5.7869 4.63707 5.027 4.636H3.273ZM11 16.455C7.98729 16.455 5.545 14.0127 5.545 11C5.545 7.98729 7.98729 5.545 11 5.545C14.0127 5.545 16.455 7.98729 16.455 11C16.4517 14.0113 14.0113 16.4517 11 16.455ZM11 6.455C8.49 6.45555 6.45563 8.49067 6.456 11.0007C6.45637 13.5107 8.49133 15.5452 11.0013 15.545C13.5113 15.5448 15.546 13.51 15.546 11C15.5432 8.49062 13.5094 6.45721 11 6.455Z" fill="white"/>
<path d="M18.728 19.182V19.682H18.7287L18.728 19.182ZM3.273 19.182L3.27234 19.682H3.273V19.182ZM1 16.909H0.5L0.5 16.9097L1 16.909ZM1 6L0.5 5.99934V6H1ZM3.273 3.727V3.227L3.27234 3.227L3.273 3.727ZM5.027 3.727L5.02772 3.227H5.027V3.727ZM6.162 3.12L5.74586 2.84283L5.74574 2.843L6.162 3.12ZM6.9 2.012L7.31614 2.28918L7.3162 2.28909L6.9 2.012ZM8.792 1L8.79146 1.5H8.792V1ZM13.209 1V1.5L13.2097 1.5L13.209 1ZM15.1 2.012L14.6836 2.2888L14.684 2.28944L15.1 2.012ZM15.839 3.12L16.2555 2.84333L16.255 2.84257L15.839 3.12ZM16.974 3.727V3.227L16.9729 3.227L16.974 3.727ZM18.728 3.727L18.7287 3.227H18.728V3.727ZM21 6H21.5V5.99956L21 6ZM21 16.909L21.5 16.9094V16.909H21ZM3.273 4.636V4.136L3.27263 4.136L3.273 4.636ZM1.909 6L1.409 5.99964V6H1.909ZM1.909 16.909H1.409L1.409 16.9094L1.909 16.909ZM3.273 18.273L3.27263 18.773H3.273V18.273ZM18.728 18.273V18.773H18.7287L18.728 18.273ZM20.091 16.909L20.591 16.9094V16.909H20.091ZM20.091 6H20.591V5.99964L20.091 6ZM18.728 4.636L18.7287 4.136H18.728V4.636ZM16.974 4.636V4.136L16.9734 4.136L16.974 4.636ZM15.082 3.625L14.6657 3.90201L14.666 3.90241L15.082 3.625ZM14.344 2.516L14.7603 2.239L14.76 2.23867L14.344 2.516ZM13.209 1.909V2.409L13.2093 2.409L13.209 1.909ZM8.792 1.909L8.79128 2.409H8.792V1.909ZM7.657 2.516L8.07308 2.79327L8.07326 2.793L7.657 2.516ZM6.918 3.625L6.50192 3.34774L6.50182 3.34789L6.918 3.625ZM5.027 4.636L5.02771 4.136H5.027V4.636ZM11 16.455V16.955H11.0005L11 16.455ZM16.455 11L16.955 11.0006V11H16.455ZM11 6.455L11.0004 5.955H10.9999L11 6.455ZM6.456 11.0007L6.956 11.0006L6.456 11.0007ZM15.546 11H16.046L16.046 10.9995L15.546 11ZM18.728 18.682H3.273V19.682H18.728V18.682ZM3.27366 18.682C2.29463 18.6807 1.50129 17.8874 1.5 16.9083L0.5 16.9097C0.502016 18.4399 1.74206 19.68 3.27234 19.682L3.27366 18.682ZM1.5 16.909V6H0.5V16.909H1.5ZM1.5 6.00066C1.50129 5.02163 2.29463 4.22829 3.27366 4.227L3.27234 3.227C1.74206 3.22902 0.502016 4.46906 0.5 5.99934L1.5 6.00066ZM3.273 4.227H5.027V3.227H3.273V4.227ZM5.02628 4.227C5.65001 4.22789 6.23271 3.91627 6.57826 3.397L5.74574 2.843C5.58587 3.08324 5.31629 3.22742 5.02772 3.227L5.02628 4.227ZM6.57814 3.39718L7.31614 2.28918L6.48386 1.73483L5.74586 2.84283L6.57814 3.39718ZM7.3162 2.28909C7.64476 1.79559 8.19858 1.49936 8.79146 1.5L8.79254 0.500002C7.86471 0.498995 6.99799 0.962588 6.4838 1.73491L7.3162 2.28909ZM8.792 1.5H13.209V0.500002H8.792V1.5ZM13.2097 1.5C13.8022 1.4992 14.3556 1.79539 14.6836 2.2888L15.5164 1.7352C15.0028 0.962557 14.1361 0.498745 13.2083 0.500003L13.2097 1.5ZM14.684 2.28944L15.423 3.39744L16.255 2.84257L15.516 1.73457L14.684 2.28944ZM15.4225 3.39668C15.7679 3.91652 16.351 4.22839 16.9751 4.227L16.9729 3.227C16.6845 3.22764 16.4151 3.08354 16.2555 2.84333L15.4225 3.39668ZM16.974 4.227H18.728V3.227H16.974V4.227ZM18.7273 4.227C19.7061 4.22829 20.4991 5.02166 20.5 6.00044L21.5 5.99956C21.4987 4.46935 20.2589 3.22902 18.7287 3.227L18.7273 4.227ZM20.5 6V16.909H21.5V6H20.5ZM20.5 16.9086C20.4991 17.8873 19.7061 18.6807 18.7273 18.682L18.7287 19.682C20.2589 19.68 21.4987 18.4397 21.5 16.9094L20.5 16.9086ZM3.27263 4.136C2.24369 4.13676 1.40975 4.97069 1.409 5.99964L2.409 6.00037C2.40935 5.52314 2.79613 5.13635 3.27337 5.136L3.27263 4.136ZM1.409 6V16.909H2.409V6H1.409ZM1.409 16.9094C1.40975 17.9383 2.24369 18.7722 3.27263 18.773L3.27337 17.773C2.79614 17.7727 2.40935 17.3859 2.409 16.9086L1.409 16.9094ZM3.273 18.773H18.728V17.773H3.273V18.773ZM18.7287 18.773C19.7571 18.7715 20.5902 17.9378 20.591 16.9094L19.591 16.9086C19.5907 17.3856 19.2043 17.7723 18.7273 17.773L18.7287 18.773ZM20.591 16.909V6H19.591V16.909H20.591ZM20.591 5.99964C20.5902 4.97123 19.7571 4.13751 18.7287 4.136L18.7273 5.136C19.2043 5.1367 19.5907 5.52338 19.591 6.00037L20.591 5.99964ZM18.728 4.136H16.974V5.136H18.728V4.136ZM16.9734 4.136C16.3807 4.13668 15.8269 3.84075 15.498 3.34759L14.666 3.90241C15.1806 4.67404 16.0471 5.13706 16.9746 5.136L16.9734 4.136ZM15.4983 3.348L14.7603 2.239L13.9277 2.79301L14.6657 3.90201L15.4983 3.348ZM14.76 2.23867C14.4143 1.71999 13.832 1.4086 13.2087 1.409L13.2093 2.409C13.4981 2.40882 13.7678 2.55306 13.928 2.79333L14.76 2.23867ZM13.209 1.409H8.792V2.409H13.209V1.409ZM8.79272 1.409C8.16899 1.40811 7.58629 1.71974 7.24074 2.239L8.07326 2.793C8.23313 2.55277 8.50271 2.40859 8.79128 2.409L8.79272 1.409ZM7.24092 2.23874L6.50192 3.34774L7.33408 3.90227L8.07308 2.79327L7.24092 2.23874ZM6.50182 3.34789C6.17351 3.84096 5.62008 4.13684 5.02771 4.136L5.02629 5.136C5.95372 5.13731 6.82017 4.67407 7.33418 3.90212L6.50182 3.34789ZM5.027 4.136H3.273V5.136H5.027V4.136ZM11 15.955C8.26343 15.955 6.045 13.7366 6.045 11H5.045C5.045 14.2889 7.71114 16.955 11 16.955V15.955ZM6.045 11C6.045 8.26343 8.26343 6.045 11 6.045V5.045C7.71114 5.045 5.045 7.71115 5.045 11H6.045ZM11 6.045C13.7366 6.045 15.955 8.26343 15.955 11H16.955C16.955 7.71115 14.2889 5.045 11 5.045V6.045ZM15.955 10.9995C15.952 13.7351 13.7351 15.952 10.9995 15.955L11.0005 16.955C14.2876 16.9514 16.9514 14.2876 16.955 11.0006L15.955 10.9995ZM10.9999 5.955C8.21376 5.95562 5.95559 8.21461 5.956 11.0007L6.956 11.0006C6.95567 8.76672 8.76623 6.95549 11.0001 6.955L10.9999 5.955ZM5.956 11.0007C5.95641 13.7869 8.21524 16.0452 11.0014 16.045L11.0013 15.045C8.76742 15.0452 6.95633 13.2345 6.956 11.0006L5.956 11.0007ZM11.0014 16.045C13.7875 16.0448 16.046 13.7861 16.046 11H15.046C15.046 13.2339 13.2352 15.0448 11.0013 15.045L11.0014 16.045ZM16.046 10.9995C16.0429 8.21431 13.7856 5.95745 11.0004 5.955L10.9996 6.955C13.2332 6.95696 15.0435 8.76693 15.046 11.0006L16.046 10.9995Z" fill="white"/>
</svg>
