<svg width="18" height="16" viewBox="0 0 18 16" fill="none" xmlns="http://www.w3.org/2000/svg">
<path d="M4.6672 5.5728C4.54711 5.45271 4.47964 5.28983 4.47964 5.12C4.47964 4.95017 4.54711 4.78729 4.6672 4.6672C4.78729 4.54711 4.95017 4.47964 5.12 4.47964C5.28983 4.47964 5.45271 4.54711 5.5728 4.6672L8.32 7.4152V0.64C8.32 0.470261 8.38743 0.307475 8.50745 0.187452C8.62747 0.0674284 8.79026 0 8.96 0C9.12974 0 9.29252 0.0674284 9.41255 0.187452C9.53257 0.307475 9.6 0.470261 9.6 0.64V7.4152L12.3472 4.6672C12.4673 4.54711 12.6302 4.47964 12.8 4.47964C12.9698 4.47964 13.1327 4.54711 13.2528 4.6672C13.3729 4.78729 13.4404 4.95017 13.4404 5.12C13.4404 5.28983 13.3729 5.45271 13.2528 5.5728L9.4128 9.4128C9.35336 9.47231 9.28278 9.51951 9.20508 9.55172C9.12739 9.58393 9.0441 9.6005 8.96 9.6005C8.87589 9.6005 8.79261 9.58393 8.71492 9.55172C8.63722 9.51951 8.56664 9.47231 8.5072 9.4128L4.6672 5.5728ZM17.92 9.6V14.72C17.92 15.0595 17.7851 15.385 17.5451 15.6251C17.305 15.8651 16.9795 16 16.64 16H1.28C0.940523 16 0.61495 15.8651 0.374903 15.6251C0.134857 15.385 0 15.0595 0 14.72V9.6C0 9.26052 0.134857 8.93495 0.374903 8.6949C0.61495 8.45486 0.940523 8.32 1.28 8.32H5.472C5.51403 8.31997 5.55566 8.32822 5.59451 8.34428C5.63336 8.36034 5.66866 8.38389 5.6984 8.4136L7.6 10.32C7.77837 10.499 7.99033 10.641 8.22371 10.7379C8.45709 10.8348 8.7073 10.8847 8.96 10.8847C9.2127 10.8847 9.46291 10.8348 9.69629 10.7379C9.92967 10.641 10.1416 10.499 10.32 10.32L12.224 8.416C12.2831 8.35571 12.3636 8.3212 12.448 8.32H16.64C16.9795 8.32 17.305 8.45486 17.5451 8.6949C17.7851 8.93495 17.92 9.26052 17.92 9.6ZM14.72 12.16C14.72 11.9701 14.6637 11.7845 14.5582 11.6267C14.4527 11.4688 14.3028 11.3457 14.1274 11.2731C13.952 11.2004 13.7589 11.1814 13.5727 11.2184C13.3865 11.2555 13.2154 11.3469 13.0812 11.4812C12.9469 11.6154 12.8555 11.7865 12.8184 11.9727C12.7814 12.1589 12.8004 12.352 12.8731 12.5274C12.9457 12.7028 13.0688 12.8527 13.2267 12.9582C13.3845 13.0637 13.5701 13.12 13.76 13.12C14.0146 13.12 14.2588 13.0189 14.4388 12.8388C14.6189 12.6588 14.72 12.4146 14.72 12.16Z" fill="url(#paint0_linear_469_310)"/>
<defs>
<linearGradient id="paint0_linear_469_310" x1="0" y1="8" x2="20.0704" y2="8" gradientUnits="userSpaceOnUse">
<stop stop-color="#1FBBC2"/>
<stop offset="1" stop-color="#67D1AB"/>
</linearGradient>
</defs>
</svg>
