<svg width="25" height="25" viewBox="0 0 25 25" fill="none" xmlns="http://www.w3.org/2000/svg">
<path d="M15.9298 24.58C16.4198 24.58 16.8171 24.1758 16.8171 23.6772C16.8171 23.1786 16.4198 22.7745 15.9298 22.7745C15.4397 22.7745 15.0425 23.1786 15.0425 23.6772C15.0425 24.1758 15.4397 24.58 15.9298 24.58Z" fill="white"/>
<path d="M20.2877 24.58C20.7777 24.58 21.175 24.1758 21.175 23.6772C21.175 23.1786 20.7777 22.7745 20.2877 22.7745C19.7977 22.7745 19.4004 23.1786 19.4004 23.6772C19.4004 24.1758 19.7977 24.58 20.2877 24.58Z" fill="white"/>
<path d="M7.30014 9.88945C6.69516 8.9046 6.33217 7.75562 6.33217 6.48354C6.33217 4.34971 7.21947 2.54417 8.6311 1.47726C8.10678 0.574491 7.21947 0 5.96917 0C3.91223 0 2.78293 1.68244 2.78293 3.61108C2.78293 4.678 3.14592 5.53973 3.83157 6.19629C4.23489 6.56561 4.55755 7.01699 4.55755 7.55045C4.55755 8.04287 4.39622 8.49426 3.22658 8.98668C1.57296 9.76634 0.0403323 10.7101 0 12.3105C0 13.3774 0.685648 14.1161 1.65362 14.1161H3.18625C3.42824 14.1161 3.67024 13.9519 3.79123 13.7467C4.55755 12.3926 5.92884 11.4898 7.09848 10.9153C7.3808 10.7101 7.54213 10.2177 7.30014 9.88945Z" fill="white"/>
<path d="M15.811 19.4506H21.1752C21.3365 19.4506 21.4979 19.3275 21.4979 19.1634L22.4658 15.6344C22.5465 15.3881 22.3448 15.183 22.1432 15.183H16.4563H13.8751L13.7541 14.6495C13.6734 14.4033 13.4717 14.2392 13.2298 14.2392H12.3424C12.0601 14.2392 11.7778 14.4854 11.7778 14.7726C11.7375 15.1009 12.0198 15.3471 12.3021 15.3471H12.8264L13.3104 16.9885L14.5204 21.2151C14.601 21.4613 14.8027 21.6255 15.0447 21.6255H21.3365C21.6189 21.6255 21.9012 21.3793 21.9012 21.092C21.9415 20.7637 21.6592 20.5175 21.3769 20.5175H15.811C15.569 20.5175 15.3674 20.3534 15.2867 20.1482V20.1072C15.206 19.7789 15.448 19.4506 15.811 19.4506Z" fill="white"/>
<path d="M11.7785 17.4809L11.6171 16.8654C11.2541 16.7423 10.9718 16.5371 10.7298 16.2499C10.3668 15.7985 10.1652 15.265 10.2055 14.6906C10.2458 13.5416 11.2541 12.6388 12.3834 12.6388H13.2304C13.9564 12.6388 14.6017 13.0081 15.005 13.5826H16.457H17.304C16.6587 13.1312 15.8923 12.7619 15.126 12.4336C13.8354 11.9002 13.6741 11.3667 13.6741 10.8333C13.6741 10.2998 14.0371 9.76635 14.4404 9.356C15.2067 8.6584 15.61 7.67356 15.61 6.48354C15.61 4.34972 14.3194 2.50314 12.0608 2.50314C9.80217 2.50314 8.51154 4.34972 8.51154 6.48354C8.51154 7.63252 8.9552 8.61737 9.68118 9.356C10.1248 9.76635 10.4475 10.2998 10.4475 10.8333C10.4475 11.3667 10.2458 11.9002 8.99553 12.4336C7.05958 13.2133 5.28496 14.1571 5.24463 15.9216C5.24463 17.0706 6.05127 18.0965 7.14025 18.0965H11.8995L11.7785 17.4809Z" fill="white"/>
<path d="M17.7054 6.48354C17.7054 7.75562 17.3827 8.9046 16.7374 9.88945C16.4954 10.2588 16.6164 10.7101 17.0197 10.9564C18.149 11.4898 19.4397 12.3105 20.206 13.5826H22.1419C22.5453 13.5826 22.9082 13.7057 23.2309 13.9519C23.7552 13.6647 24.0779 13.0902 24.0779 12.3515C24.0375 10.7512 22.5049 9.76634 20.8513 8.98668C19.6817 8.49426 19.5203 8.00183 19.5203 7.55045C19.5203 7.05803 19.843 6.56561 20.2463 6.19629C20.932 5.53973 21.295 4.678 21.295 3.61108C21.295 1.6414 20.1657 0 18.1087 0C16.8584 0 15.9711 0.574491 15.4468 1.47726C16.8181 2.54417 17.7054 4.30868 17.7054 6.48354Z" fill="white"/>
</svg>
