<svg width="21" height="14" viewBox="0 0 21 14" fill="none" xmlns="http://www.w3.org/2000/svg">
<path d="M20.9396 6.7165C20.909 6.64738 20.1679 5.00325 18.5202 3.35562C16.3249 1.16025 13.552 0 10.5 0C7.44799 0 4.67512 1.16025 2.47974 3.35562C0.832117 5.00325 0.0874916 6.65 0.0603666 6.7165C0.0205656 6.80602 0 6.9029 0 7.00087C0 7.09885 0.0205656 7.19573 0.0603666 7.28525C0.0909916 7.35437 0.832117 8.99763 2.47974 10.6453C4.67512 12.8398 7.44799 14 10.5 14C13.552 14 16.3249 12.8398 18.5202 10.6453C20.1679 8.99763 20.909 7.35437 20.9396 7.28525C20.9794 7.19573 21 7.09885 21 7.00087C21 6.9029 20.9794 6.80602 20.9396 6.7165ZM10.5 10.5C9.80776 10.5 9.13107 10.2947 8.5555 9.91014C7.97993 9.52556 7.53132 8.97893 7.26642 8.33939C7.00151 7.69985 6.9322 6.99612 7.06725 6.31718C7.20229 5.63825 7.53564 5.01461 8.02512 4.52513C8.5146 4.03564 9.13824 3.7023 9.81718 3.56725C10.4961 3.4322 11.1998 3.50151 11.8394 3.76642C12.4789 4.03133 13.0256 4.47993 13.4101 5.0555C13.7947 5.63108 14 6.30777 14 7C14 7.92826 13.6312 8.8185 12.9749 9.47487C12.3185 10.1313 11.4283 10.5 10.5 10.5Z" fill="url(#paint0_linear_89_7033)"/>
<defs>
<linearGradient id="paint0_linear_89_7033" x1="0" y1="7" x2="23.52" y2="7" gradientUnits="userSpaceOnUse">
<stop stop-color="#1f84c2"/>
<stop offset="1" stop-color="#67bed1"/>
</linearGradient>
</defs>
</svg>
