<svg width="23" height="17" viewBox="0 0 23 17" fill="none" xmlns="http://www.w3.org/2000/svg">
<path d="M21.8571 12.1429H21.0476V2.42857C21.0476 1.78447 20.7917 1.16676 20.3363 0.711312C19.8809 0.255867 19.2631 0 18.619 0H4.04762C3.40352 0 2.7858 0.255867 2.33036 0.711312C1.87491 1.16676 1.61905 1.78447 1.61905 2.42857V12.1429H0.809524C0.594825 12.1429 0.388919 12.2281 0.237104 12.38C0.0852888 12.5318 0 12.7377 0 12.9524V14.5714C0 15.2155 0.255867 15.8332 0.711312 16.2887C1.16676 16.7441 1.78447 17 2.42857 17H20.2381C20.8822 17 21.4999 16.7441 21.9554 16.2887C22.4108 15.8332 22.6667 15.2155 22.6667 14.5714V12.9524C22.6667 12.7377 22.5814 12.5318 22.4296 12.38C22.2777 12.2281 22.0718 12.1429 21.8571 12.1429ZM9.71428 2.42857H12.9524C13.1671 2.42857 13.373 2.51386 13.5248 2.66568C13.6766 2.81749 13.7619 3.0234 13.7619 3.2381C13.7619 3.45279 13.6766 3.6587 13.5248 3.81051C13.373 3.96233 13.1671 4.04762 12.9524 4.04762H9.71428C9.49959 4.04762 9.29368 3.96233 9.14186 3.81051C8.99005 3.6587 8.90476 3.45279 8.90476 3.2381C8.90476 3.0234 8.99005 2.81749 9.14186 2.66568C9.29368 2.51386 9.49959 2.42857 9.71428 2.42857ZM21.0476 14.5714C21.0476 14.7861 20.9623 14.992 20.8105 15.1438C20.6587 15.2957 20.4528 15.381 20.2381 15.381H2.42857C2.21387 15.381 2.00797 15.2957 1.85615 15.1438C1.70434 14.992 1.61905 14.7861 1.61905 14.5714V13.7619H21.0476V14.5714Z" fill="url(#paint0_linear_118_4672)"/>
<defs>
<linearGradient id="paint0_linear_118_4672" x1="0" y1="8.5" x2="25.3867" y2="8.5" gradientUnits="userSpaceOnUse">
<stop stop-color="#1FBBC2"/>
<stop offset="1" stop-color="#67D1AB"/>
</linearGradient>
</defs>
</svg>
