<svg width="26" height="20" viewBox="0 0 26 20" fill="none" xmlns="http://www.w3.org/2000/svg">
<path d="M9.25081 8.66644C9.30382 8.83497 9.36905 9.0076 9.44539 9.17886C9.6008 9.58516 9.82508 10.0066 10.0949 10.3966C10.2084 10.5617 10.3579 10.7609 10.535 10.9582C10.3741 11.0725 10.2588 11.2081 10.2071 11.3656L8.0588 12.0165C7.01938 12.3151 6.26628 15.4955 5.89697 17.4553C7.85438 18.6459 10.1457 19.33 12.5813 19.33C12.5818 19.33 12.582 19.33 12.5824 19.33C12.8682 19.3298 13.1578 19.3202 13.4433 19.3015C15.5498 19.1626 17.5472 18.5242 19.3028 17.4538C18.9347 15.4621 18.174 12.318 17.1256 12.0166L14.9774 11.3656C14.9257 11.2081 14.8103 11.0726 14.6496 10.9583C14.8265 10.7609 14.9761 10.562 15.0896 10.3967C15.3593 10.0066 15.5837 9.58525 15.7392 9.17877C15.8154 9.00769 15.8807 8.83561 15.9338 8.66681C16.1428 8.49144 16.2659 8.23018 16.2659 7.95534V7.28277C16.2659 7.08964 16.2051 6.9008 16.0934 6.7442V5.79706C16.0934 4.13573 14.7419 2.78403 13.0805 2.78403H12.104C10.4427 2.78403 9.09111 4.13573 9.09111 5.79706V6.74429C8.97943 6.9008 8.91857 7.08982 8.91857 7.28277V7.95534C8.91857 8.22963 9.04174 8.49126 9.25081 8.66644ZM12.0141 13.7079C12.006 13.7867 11.9503 13.8532 11.8738 13.8742C11.8565 13.8794 11.8393 13.8817 11.8219 13.8817C11.7624 13.8817 11.7049 13.8535 11.6678 13.8041L11.1253 13.0849C11.1001 13.0511 11.0864 13.0104 11.0864 12.9684L11.0871 11.8144C11.0872 11.7463 11.1225 11.6838 11.1804 11.6487C11.2385 11.6142 11.3106 11.6118 11.3705 11.6437C11.5282 11.7275 11.6858 11.7831 11.8391 11.8103C11.9313 11.8265 11.9985 11.9068 11.9985 12.0005V12.4818C12.0259 12.4926 12.0509 12.5102 12.0713 12.5323C12.108 12.5727 12.1256 12.6271 12.12 12.6816L12.0141 13.7079ZM14.0973 12.9685C14.0973 13.0105 14.0837 13.0512 14.0585 13.085L13.5166 13.8042C13.4794 13.8532 13.422 13.8807 13.3625 13.8807C13.3451 13.8807 13.3279 13.8788 13.3106 13.8737C13.2342 13.8526 13.1785 13.7868 13.1704 13.708L13.0645 12.6817C13.0588 12.6272 13.0766 12.5729 13.1133 12.5324C13.1337 12.5103 13.1586 12.4927 13.1859 12.4819V12.0006C13.1859 11.9069 13.2532 11.8266 13.3454 11.8104C13.4986 11.7832 13.6563 11.7276 13.814 11.644C13.8738 11.6119 13.9459 11.6143 14.004 11.6489C14.0621 11.6839 14.0974 11.7465 14.0974 11.8145V12.9685H14.0973ZM9.95089 7.51588C9.95089 7.40894 10.0372 7.32258 10.1438 7.32258H10.2227V6.97832C10.2227 6.90508 10.2642 6.83821 10.3296 6.80551C10.5956 6.67287 11.1232 6.45041 11.6695 6.45041C12.1052 6.45041 12.4666 6.5948 12.7435 6.8813C13.0887 7.23795 13.4862 7.41868 13.9254 7.41868C14.174 7.41868 14.4311 7.36011 14.6894 7.24414C14.7492 7.21754 14.8183 7.22283 14.8733 7.25826C14.8991 7.27448 14.9201 7.29734 14.9351 7.32258H15.0406C15.1471 7.32258 15.2335 7.40894 15.2335 7.51588V7.83363C15.2335 7.89904 15.2004 7.95989 15.1458 7.9956L14.9582 8.11703L14.9479 8.19711C14.8869 8.65852 14.6278 9.25702 14.255 9.79714C13.7825 10.4823 13.3402 10.7887 13.111 10.7887H12.0732C11.8441 10.7887 11.4015 10.4824 10.9293 9.79714C10.5562 9.25693 10.2972 8.6587 10.2363 8.1972L10.2259 8.11694L10.0383 7.99551C9.98377 7.95971 9.95071 7.89886 9.95071 7.83354V7.51588H9.95089Z" fill="#1FBBC2"/>
<path d="M4.29204 9.10471e-05C2.6307 9.10471e-05 1.27919 1.35188 1.27919 3.01313V3.96036C1.16741 4.11686 1.10665 4.30598 1.10665 4.49883V5.1714C1.10665 5.44579 1.22981 5.70732 1.43897 5.8826C1.4919 6.05149 1.55721 6.22375 1.63355 6.39538C1.78906 6.80167 2.01334 7.22263 2.28308 7.61308C2.39658 7.77787 2.54616 7.97737 2.72326 8.17433C2.56229 8.28874 2.44705 8.42457 2.39531 8.5818L0.247056 9.23297C0.162882 9.25729 0.0805299 9.3012 0 9.36132C0.724313 12.4307 2.54188 15.0705 5.0046 16.861H5.22287C5.30978 16.4285 5.41235 15.9571 5.52996 15.4791C6.35894 12.1124 7.19795 11.4614 7.83763 11.2752L9.42755 10.7934C9.14151 10.373 8.90056 9.91811 8.72893 9.47456C8.67227 9.34593 8.62061 9.2162 8.57443 9.08648C8.54482 9.05341 8.5174 9.01871 8.49053 8.98336L7.16561 8.58171C7.11396 8.42448 6.99863 8.28865 6.83784 8.17424C7.01475 7.97728 7.16434 7.77805 7.27784 7.61308C7.54758 7.22245 7.77195 6.80158 7.92746 6.39511C8.0037 6.22366 8.06893 6.05185 8.12204 5.88278C8.33102 5.70769 8.45418 5.44606 8.45418 5.1714V4.49883C8.45418 4.3058 8.39342 4.11686 8.28164 3.96026V3.01304C8.28164 1.35179 6.93012 0 5.26897 0L4.29204 9.10471e-05ZM4.20222 10.9242C4.19411 11.0032 4.13836 11.0694 4.06184 11.0903C4.04462 11.0955 4.0274 11.0978 4.00991 11.0978C3.95043 11.0978 3.89304 11.0697 3.85587 11.0207L3.31339 10.3012C3.28815 10.2676 3.27449 10.2267 3.27449 10.1846L3.27522 9.03064C3.27531 8.96277 3.31056 8.90019 3.3685 8.86521C3.42662 8.83059 3.49868 8.82804 3.55853 8.85983C3.71631 8.94355 3.874 8.9993 4.02722 9.02654C4.11941 9.04303 4.18664 9.12292 4.18664 9.21675V9.69829C4.21406 9.70913 4.23902 9.72653 4.25943 9.74839C4.29605 9.78893 4.31381 9.8435 4.30817 9.8977L4.20222 10.9242ZM6.28534 10.1846C6.28534 10.2267 6.27167 10.2676 6.24653 10.3012L5.70459 11.0207C5.66752 11.0693 5.60994 11.0971 5.55046 11.0971C5.53306 11.0971 5.51584 11.095 5.49853 11.0902C5.42219 11.0689 5.36635 11.0032 5.35833 10.9242L5.25239 9.8977C5.24683 9.8435 5.2645 9.78902 5.30122 9.74839C5.32162 9.72653 5.34649 9.70913 5.37382 9.69829V9.21675C5.37382 9.12292 5.44114 9.04303 5.53324 9.02654C5.68647 8.9993 5.84415 8.94355 6.00184 8.86001C6.0616 8.82804 6.13375 8.83068 6.19187 8.8653C6.24999 8.90028 6.28534 8.96286 6.28534 9.03064V10.1846ZM6.87756 4.4603C6.93723 4.43361 7.00646 4.43907 7.06149 4.47433C7.08727 4.49091 7.10831 4.51341 7.12325 4.53891H7.22874C7.33523 4.53891 7.42168 4.62536 7.42168 4.73204V5.04969C7.42168 5.11547 7.38862 5.17605 7.33396 5.21194L7.14639 5.33346L7.1361 5.41345C7.07506 5.87485 6.81607 6.473 6.44312 7.01339C5.97078 7.69853 5.52832 8.00516 5.29921 8.00516H4.26143C4.03232 8.00516 3.58986 7.69862 3.11771 7.01339C2.74467 6.473 2.48568 5.87513 2.42464 5.41372L2.41426 5.33346L2.22678 5.21194C2.17221 5.17596 2.13905 5.11538 2.13905 5.04969V4.73204C2.13905 4.62536 2.22532 4.53891 2.33209 4.53891H2.41089V4.19438C2.41089 4.12114 2.45234 4.05428 2.51774 4.02176C2.78375 3.88894 3.31138 3.66639 3.85769 3.66639C4.29341 3.66639 4.65488 3.81105 4.93163 4.09737C5.27689 4.45392 5.67444 4.63466 6.11362 4.63466C6.36213 4.63484 6.6193 4.57626 6.87756 4.4603Z" fill="#1FBBC2"/>
<path d="M17.3425 11.2752C17.9857 11.4626 18.8283 12.1075 19.6532 15.419C19.7757 15.9105 19.8831 16.4031 19.9741 16.861H20.1883C20.9572 16.2997 21.6699 15.6488 22.3133 14.9146C23.7316 13.2958 24.7049 11.3956 25.1835 9.36227C25.1019 9.30196 25.0184 9.2576 24.9328 9.233L22.7846 8.58184C22.7329 8.4246 22.6176 8.28878 22.4567 8.17436C22.6336 7.97741 22.7832 7.77818 22.8967 7.6132C23.1665 7.22258 23.3908 6.80171 23.5463 6.39523C23.6226 6.22379 23.6877 6.05198 23.7409 5.8829C23.9499 5.70781 24.0731 5.44618 24.0731 5.17152V4.49895C24.0731 4.30592 24.0123 4.11698 23.9005 3.96039V3.01316C23.9005 1.35191 22.549 0.00012207 20.8878 0.00012207H19.9111C18.25 0.00012207 16.8984 1.35191 16.8984 3.01316V3.96039C16.7866 4.11689 16.7258 4.30601 16.7258 4.49886V5.17143C16.7258 5.44582 16.849 5.70736 17.058 5.88263C17.1111 6.05152 17.1763 6.22379 17.2526 6.39541C17.4079 6.80171 17.6323 7.22267 17.9022 7.61311C18.0157 7.7779 18.1652 7.97741 18.3422 8.17436C18.1813 8.28878 18.066 8.4246 18.0143 8.58184L16.6896 8.98348C16.6628 9.01883 16.6353 9.05354 16.6055 9.08697C16.5594 9.21642 16.5078 9.34596 16.4511 9.47468C16.2797 9.9175 16.0389 10.3721 15.7524 10.7935L17.3425 11.2752ZM19.8214 10.9242C19.8134 11.0032 19.7575 11.0694 19.6811 11.0904C19.6639 11.0956 19.6467 11.0978 19.6292 11.0978C19.5696 11.0978 19.5122 11.0697 19.475 11.0207L18.9325 10.3012C18.9072 10.2677 18.8936 10.2267 18.8936 10.1846L18.8943 9.03067C18.8944 8.96281 18.9296 8.90022 18.9877 8.86524C19.0458 8.83062 19.1178 8.82807 19.1776 8.85987C19.3354 8.94358 19.4931 8.99934 19.6464 9.02657C19.7385 9.04306 19.8058 9.12295 19.8058 9.21678V9.69832C19.8332 9.70916 19.8582 9.72656 19.8785 9.74843C19.9152 9.78897 19.933 9.84353 19.9272 9.89773L19.8214 10.9242ZM21.9044 10.1846C21.9044 10.2267 21.8908 10.2677 21.8657 10.3012L21.3239 11.0207C21.2866 11.0693 21.2291 11.0971 21.1697 11.0971C21.1523 11.0971 21.1351 11.095 21.1179 11.0902C21.0414 11.069 20.9857 11.0032 20.9776 10.9242L20.8717 9.89773C20.8662 9.84353 20.8839 9.78906 20.9206 9.74843C20.941 9.72656 20.9657 9.70916 20.9932 9.69832V9.21678C20.9932 9.12295 21.0605 9.04306 21.1526 9.02657C21.3057 8.99934 21.4634 8.94358 21.6211 8.86005C21.681 8.82807 21.753 8.83071 21.8111 8.86533C21.8693 8.90031 21.9045 8.9629 21.9045 9.03067V10.1846H21.9044ZM18.0437 5.41384L18.0333 5.33359L17.8458 5.21206C17.7911 5.17608 17.758 5.1155 17.758 5.04982V4.73216C17.758 4.62549 17.8444 4.53904 17.951 4.53904H18.0299V4.19451C18.0299 4.12127 18.0713 4.0544 18.1367 4.02188C18.4028 3.88906 18.9305 3.66651 19.4768 3.66651C19.9126 3.66651 20.274 3.81117 20.5508 4.09749C20.8961 4.45404 21.2935 4.63478 21.7327 4.63478C21.9813 4.63478 22.2386 4.57621 22.4968 4.46033C22.5565 4.43364 22.6257 4.4391 22.6807 4.47436C22.7065 4.49094 22.7276 4.51344 22.7425 4.53895H22.8479C22.9545 4.53895 23.0409 4.6254 23.0409 4.73207V5.04973C23.0409 5.1155 23.0078 5.17608 22.9532 5.21197L22.7656 5.3335L22.7554 5.41348C22.6943 5.87489 22.4352 6.47303 22.0623 7.01342C21.59 7.69856 21.1476 8.00519 20.9185 8.00519H19.8807C19.6516 8.00519 19.2091 7.69865 18.7368 7.01342C18.3636 6.47312 18.1048 5.87525 18.0437 5.41384Z" fill="#1FBBC2"/>
</svg>
