<svg width="21" height="22" viewBox="0 0 21 22" fill="none" xmlns="http://www.w3.org/2000/svg">
<path d="M19.6077 4.9226L10.9665 0.19449C10.7356 0.0669173 10.4761 0 10.2123 0C9.94854 0 9.68906 0.0669173 9.45818 0.19449L0.816986 4.92456C0.570209 5.05959 0.36421 5.25839 0.2205 5.50021C0.076789 5.74203 0.000638523 6.018 0 6.2993V15.6907C0.000638523 15.972 0.076789 16.248 0.2205 16.4898C0.36421 16.7316 0.570209 16.9304 0.816986 17.0654L9.45818 21.7955C9.68906 21.9231 9.94854 21.99 10.2123 21.99C10.4761 21.99 10.7356 21.9231 10.9665 21.7955L19.6077 17.0654C19.8544 16.9304 20.0604 16.7316 20.2041 16.4898C20.3479 16.248 20.424 15.972 20.4246 15.6907V6.30028C20.4245 6.01848 20.3486 5.7419 20.2049 5.49951C20.0612 5.25713 19.8549 5.05786 19.6077 4.9226ZM10.2123 1.56923L18.1023 5.88982L15.1781 7.48942L7.28806 3.16883L10.2123 1.56923ZM10.2123 10.2104L2.32232 5.88982L5.65213 4.06633L13.5421 8.38693L10.2123 10.2104ZM18.8535 15.6946L10.9979 19.9946V11.5685L14.1401 9.84906V13.3527C14.1401 13.561 14.2229 13.7608 14.3702 13.9081C14.5175 14.0555 14.7174 14.1382 14.9257 14.1382C15.134 14.1382 15.3339 14.0555 15.4812 13.9081C15.6285 13.7608 15.7113 13.561 15.7113 13.3527V8.98887L18.8535 7.26947V15.6907V15.6946Z" fill="white"/>
</svg>
