<svg width="155" height="155" viewBox="0 0 155 155" fill="none" xmlns="http://www.w3.org/2000/svg">
<g id="[component:lottie:https://assets1.lottiefiles.com/packages/lf20_t6eeo9z1.json]">
<path id="Vector (Stroke)" fill-rule="evenodd" clip-rule="evenodd" d="M115.596 48.1457C117.888 50.4284 117.896 54.137 115.613 56.429L66.2604 105.982C63.9778 108.274 60.2694 108.282 57.9774 105.999L39.9788 88.0751C37.6867 85.7925 37.679 82.084 39.9615 79.7918C42.2441 77.4997 45.9527 77.492 48.2448 79.7746L62.0934 93.5658L107.313 48.1625C109.596 45.8705 113.304 45.863 115.596 48.1457Z" fill="url(#paint0_linear_336_18)"/>
<path id="Vector (Stroke)_2" fill-rule="evenodd" clip-rule="evenodd" d="M77.1586 11.7143C46.1114 11.7143 20.065 33.3937 13.379 62.4361L13.379 62.4362C12.2906 67.1635 11.7143 72.0909 11.7143 77.1586C11.7143 113.275 41.0421 142.603 77.1586 142.603C113.275 142.603 142.603 113.275 142.603 77.1586C142.603 41.0421 113.275 11.7143 77.1586 11.7143ZM1.96331 59.808C9.8455 25.5697 40.53 0 77.1586 0C119.745 0 154.317 34.5725 154.317 77.1586C154.317 119.745 119.745 154.317 77.1586 154.317C34.5725 154.317 0 119.745 0 77.1586C0 71.1999 0.677961 65.3909 1.96331 59.808Z" fill="url(#paint1_linear_336_18)"/>
</g>
<defs>
<linearGradient id="paint0_linear_336_18" x1="38.2546" y1="77.0723" x2="126.808" y2="77.0723" gradientUnits="userSpaceOnUse">
<stop stop-color="#1FBBC2"/>
<stop offset="1" stop-color="#67D1AB"/>
</linearGradient>
<linearGradient id="paint1_linear_336_18" x1="0" y1="77.1586" x2="172.835" y2="77.1586" gradientUnits="userSpaceOnUse">
<stop stop-color="#1FBBC2"/>
<stop offset="1" stop-color="#67D1AB"/>
</linearGradient>
</defs>
</svg>
